C:\GBW_MyPrograms\KinderuniversiteitApp\Resultaten\Ellis\Olaf_v1.mot
version=1
nRows=9
nColumns=31
inDegrees=yes
endheader
                time	         pelvis_tilt	           pelvis_tx	           pelvis_ty	       hip_flexion_r	        knee_angle_r	       ankle_angle_r	       hip_flexion_l	        knee_angle_l	       ankle_angle_l	    lumbar_extension	          arm_flex_r	          arm_flex_l	hamstrings_r/activation	bifemsh_r/activation	glut_max_r/activation	iliopsoas_r/activation	rect_fem_r/activation	  vasti_r/activation	gastroc_r/activation	 soleus_r/activation	tib_ant_r/activation	hamstrings_l/activation	bifemsh_l/activation	glut_max_l/activation	iliopsoas_l/activation	rect_fem_l/activation	  vasti_l/activation	gastroc_l/activation	 soleus_l/activation	tib_ant_l/activation	
          0.73514433	         -0.85185748	          0.96835529	          1.02413912	         11.81326922	        -26.00675985	          6.29232357	         28.25115026	        -52.38326282	         -4.16881589	         -3.84111683	         -3.44169139	         -3.44168750	          0.52752405	          0.63890319	          0.50816560	          0.65448005	          0.58657555	          0.44993436	          0.05458315	          0.05164569	          0.89455029	          0.15751730	          0.65322043	          0.22972116	          0.75871777	          0.70653931	          0.39723741	          0.31919804	          0.06374872	          0.85802258	
          0.74249577	         -0.89632154	          0.97779417	          1.01739268	         11.11065778	        -25.51143445	          8.13850751	         29.08906185	        -51.83595989	         -2.89740350	         -3.82122861	         -3.40523856	         -3.40523470	          0.50928130	          0.63264783	          0.52729677	          0.62407262	          0.58638061	          0.46572346	          0.05611091	          0.05106271	          0.83816869	          0.14829046	          0.65037841	          0.24102543	          0.75665382	          0.69796610	          0.38829728	          0.29690024	          0.05813859	          0.86507212	
          0.74984721	         -0.93976317	          0.98728673	          1.01019386	         10.39426745	        -25.35368637	         10.31899782	         29.87371849	        -51.08632022	         -1.65023343	         -3.79656596	         -3.37632319	         -3.37631960	          0.46207895	          0.62626001	          0.55822819	          0.58138254	          0.60547873	          0.52393270	          0.15123384	          0.13900625	          0.77608385	          0.13925451	          0.65023442	          0.25216699	          0.76200814	          0.69277693	          0.36862086	          0.27267174	          0.05391772	          0.87119395	
          0.75719866	         -0.98030255	          0.99684984	          1.00270110	          9.61191168	        -25.27072849	         12.72977791	         30.59796405	        -50.14246747	         -0.45749639	         -3.76775050	         -3.35701335	         -3.35700983	          0.41523183	          0.59361862	          0.61997608	          0.52645251	          0.65459612	          0.65202785	          0.16772651	          0.15279761	          0.72410570	          0.13797910	          0.65765875	          0.24623020	          0.76512813	          0.68730022	          0.34684938	          0.24611333	          0.05173771	          0.87690470	
          0.76455010	         -1.01497485	          1.00640581	          0.99533076	          8.94053107	        -25.38057725	         14.85310156	         31.24512673	        -48.98317888	          0.60442099	         -3.74810841	         -3.33598067	         -3.33597742	          0.37284796	          0.55501948	          0.60959640	          0.52505991	          0.72991982	          0.72625780	          0.19103943	          0.16891105	          0.68011123	          0.13191835	          0.67278772	          0.24801681	          0.79769819	          0.70260080	          0.32792598	          0.22083740	          0.05134422	          0.88054924	
          0.77190154	         -1.05245335	          1.01581712	          0.98866562	          8.79841098	        -26.37225902	         16.56868603	         31.80273629	        -47.57543582	          1.50730207	         -3.74461657	         -3.29615321	         -3.29615010	          0.33469031	          0.54244488	          0.58647874	          0.61295589	          0.76639435	          0.79960422	          0.23180113	          0.19962714	          0.63003201	          0.12221463	          0.68706109	          0.24244235	          0.79277153	          0.69842049	          0.31629492	          0.19911323	          0.05129332	          0.87780594	
          0.77925299	         -1.11204091	          1.02521457	          0.98281637	          9.07635879	        -28.02121400	         17.87099221	         32.29440516	        -46.02265133	          2.33423060	         -3.72002407	         -3.26032574	         -3.26032292	          0.30046717	          0.52061422	          0.58476899	          0.61566564	          0.80496286	          0.85935007	          0.27172898	          0.25780976	          0.56297146	          0.12503572	          0.66764557	          0.26727531	          0.77981049	          0.69360865	          0.32369334	          0.20576646	          0.05290189	          0.84659668	
          0.78660443	         -1.17475009	          1.03482968	          0.97771345	          9.37680163	        -29.68502892	         18.85725939	         32.70696032	        -44.47043255	          2.93412733	         -3.66994280	         -3.25697917	         -3.25697653	          0.27022482	          0.50439432	          0.58816362	          0.60341047	          0.82439144	          0.89760334	          0.30701417	          0.30203607	          0.50336697	          0.13876966	          0.64692988	          0.29721674	          0.74806830	          0.68245530	          0.35814210	          0.19813273	          0.06390754	          0.80713869	
          0.79395587	         -1.22606379	          1.04478555	          0.97333402	          9.49296620	        -31.04894129	         19.62889234	         33.02095309	        -43.02744398	          3.17558528	         -3.59723626	         -3.30017248	         -3.30017017	          0.24389087	          0.49149040	          0.58296894	          0.60186862	          0.84068743	          0.92176070	          0.34267870	          0.34375186	          0.44980202	          0.16668327	          0.62460336	          0.33999032	          0.71927502	          0.67365683	          0.40461114	          0.19274168	          0.07029011	          0.72072270	
